<svg xmlns="http://www.w3.org/2000/svg" width="1080" height="1350" viewBox="0 0 1080 1350">
<defs>
  <linearGradient id="bg" x1="0" y1="0" x2="0" y2="1">
    <stop offset="0" stop-color="#04060d"/><stop offset="0.45" stop-color="#070b18"/>
    <stop offset="0.78" stop-color="#0a1622"/><stop offset="1" stop-color="#06120f"/>
  </linearGradient>
  <radialGradient id="glow" cx="0.5" cy="0.5" r="0.5">
    <stop offset="0" stop-color="#7ff0d0" stop-opacity="0.42"/>
    <stop offset="0.32" stop-color="#39d6a8" stop-opacity="0.22"/>
    <stop offset="0.7" stop-color="#1f9e8c" stop-opacity="0.05"/>
    <stop offset="1" stop-color="#1f9e8c" stop-opacity="0"/>
  </radialGradient>
  <radialGradient id="shieldFill" cx="0.5" cy="0.35" r="0.75">
    <stop offset="0" stop-color="#103428"/><stop offset="0.6" stop-color="#0a1f1c"/>
    <stop offset="1" stop-color="#06130f"/>
  </radialGradient>
  <linearGradient id="shieldEdge" x1="0" y1="0" x2="0" y2="1">
    <stop offset="0" stop-color="#8df3d3"/><stop offset="1" stop-color="#2fae8e"/>
  </linearGradient>
  <linearGradient id="ring" x1="0" y1="0" x2="1" y2="1">
    <stop offset="0" stop-color="#9af5da" stop-opacity="0.9"/>
    <stop offset="1" stop-color="#2fae8e" stop-opacity="0.15"/>
  </linearGradient>
</defs>
<rect width="1080" height="1350" fill="url(#bg)"/>
<ellipse cx="540" cy="760" rx="720" ry="560" fill="url(#glow)"/>
<g fill="#ffffff">
  <circle cx="150" cy="180" r="2" opacity="0.5"/><circle cx="900" cy="140" r="2.4" opacity="0.6"/>
  <circle cx="1010" cy="360" r="1.6" opacity="0.4"/><circle cx="80" cy="500" r="1.8" opacity="0.45"/>
  <circle cx="1020" cy="700" r="2" opacity="0.5"/><circle cx="60" cy="900" r="1.5" opacity="0.35"/>
  <circle cx="1000" cy="1080" r="1.8" opacity="0.45"/><circle cx="120" cy="1180" r="2" opacity="0.5"/>
</g>
<text x="70" y="151" font-family="-apple-system,'SF Pro Display','Helvetica Neue',Arial,sans-serif" font-weight="800" font-size="100" fill="#ffffff" letter-spacing="-1">あなたのデータを</text>
<text x="70" y="257" font-family="-apple-system,'SF Pro Display','Helvetica Neue',Arial,sans-serif" font-weight="800" font-size="100" fill="#ffffff" letter-spacing="-1">保存も販売も</text>
<text x="70" y="363" font-family="-apple-system,'SF Pro Display','Helvetica Neue',Arial,sans-serif" font-weight="800" font-size="100" fill="#ffffff" letter-spacing="-1">しない</text>
<text x="70" y="469" font-family="-apple-system,'SF Pro Display','Helvetica Neue',Arial,sans-serif" font-weight="800" font-size="100" fill="#5ee8c0" letter-spacing="-1">唯一のAI。</text>
<g transform="translate(540,765) scale(0.64)">
  <circle cx="0" cy="0" r="430" fill="none" stroke="url(#ring)" stroke-width="2.5" opacity="0.5"/>
  <circle cx="0" cy="0" r="360" fill="none" stroke="url(#ring)" stroke-width="2" opacity="0.32"/>
  <path d="M0,-330 C140,-270 250,-250 300,-238 C300,-60 250,170 0,338 C-250,170 -300,-60 -300,-238 C-250,-250 -140,-270 0,-330 Z"
        fill="url(#shieldFill)" stroke="url(#shieldEdge)" stroke-width="10"/>
  <g transform="translate(0,-30)">
    <path d="M-92,-30 a92,110 0 0 1 184,0" fill="none" stroke="#bff6e4" stroke-width="26"/>
    <rect x="-130" y="-30" width="260" height="200" rx="34" fill="#0d2a22" stroke="#7ff0d0" stroke-width="11"/>
    <circle cx="0" cy="48" r="30" fill="#7ff0d0"/>
    <rect x="-14" y="62" width="28" height="62" rx="14" fill="#7ff0d0"/>
  </g>
  <text x="0" y="232" text-anchor="middle" font-family="-apple-system,'SF Pro Display','Helvetica Neue',Arial,sans-serif" font-weight="700" font-size="40" fill="#9af5da" letter-spacing="2">エンドツーエンド暗号化</text>
</g>
<text x="540" y="1115" text-anchor="middle" font-family="-apple-system,'SF Pro Display','Helvetica Neue',Arial,sans-serif" font-weight="500" font-size="38" fill="#aeb6c4">追跡なし。広告なし。販売なし。</text>
<text x="540" y="1190" text-anchor="middle" font-family="-apple-system,'SF Pro Display','Helvetica Neue',Arial,sans-serif" font-weight="600" font-size="40" fill="#cfd5e0">20か国以上のiOSユーザーに信頼されています</text>
<text x="50" y="1305" font-family="-apple-system,'SF Pro Display','Helvetica Neue',Arial,sans-serif" font-weight="600" font-size="32" fill="#ffffff">NoArk — 無限の記憶</text>
</svg>