<svg xmlns="http://www.w3.org/2000/svg" width="1242" height="2688" viewBox="0 0 1242 2688">
<defs>
  <linearGradient id="bg" x1="0" y1="0" x2="0" y2="1">
    <stop offset="0" stop-color="#05070f"/><stop offset="0.42" stop-color="#0b1020"/>
    <stop offset="0.72" stop-color="#161430"/><stop offset="1" stop-color="#241a26"/>
  </linearGradient>
  <radialGradient id="glow" cx="0.5" cy="0.5" r="0.5">
    <stop offset="0" stop-color="#ffe6b0" stop-opacity="0.5"/>
    <stop offset="0.34" stop-color="#ffcf8a" stop-opacity="0.26"/>
    <stop offset="0.7" stop-color="#ffb877" stop-opacity="0.05"/>
    <stop offset="1" stop-color="#ffb877" stop-opacity="0"/>
  </radialGradient>
  <radialGradient id="dial" cx="0.5" cy="0.4" r="0.7">
    <stop offset="0" stop-color="#241d12"/><stop offset="0.7" stop-color="#15120c"/>
    <stop offset="1" stop-color="#0c0a07"/>
  </radialGradient>
  <linearGradient id="rim" x1="0" y1="0" x2="0" y2="1">
    <stop offset="0" stop-color="#ffe2a6"/><stop offset="1" stop-color="#c79544"/>
  </linearGradient>
  <radialGradient id="star" cx="0.5" cy="0.5" r="0.5">
    <stop offset="0" stop-color="#fff4d6"/><stop offset="1" stop-color="#ffce7a"/>
  </radialGradient>
</defs>

<rect width="1242" height="2688" fill="url(#bg)"/>
<ellipse cx="621" cy="1580" rx="880" ry="780" fill="url(#glow)"/>

<!-- starfield -->
<g fill="#ffffff">
  <circle cx="180" cy="300" r="2" opacity="0.5"/><circle cx="980" cy="240" r="2.5" opacity="0.6"/>
  <circle cx="1080" cy="520" r="1.6" opacity="0.4"/><circle cx="120" cy="700" r="1.8" opacity="0.45"/>
  <circle cx="1130" cy="980" r="2" opacity="0.5"/><circle cx="90" cy="1180" r="1.5" opacity="0.35"/>
  <circle cx="1150" cy="1500" r="2.2" opacity="0.5"/><circle cx="70" cy="1650" r="1.7" opacity="0.4"/>
  <circle cx="1100" cy="2050" r="1.8" opacity="0.45"/><circle cx="150" cy="2150" r="2" opacity="0.5"/>
  <circle cx="1000" cy="2380" r="1.5" opacity="0.35"/><circle cx="260" cy="2450" r="1.8" opacity="0.4"/>
</g>

<!-- headline -->
<text x="110" y="468" font-family="-apple-system,'SF Pro Display','Helvetica Neue',Arial,sans-serif" font-weight="800" font-size="112" fill="#9aa1b2" letter-spacing="-3">Other AIs tell</text>
<text x="110" y="592" font-family="-apple-system,'SF Pro Display','Helvetica Neue',Arial,sans-serif" font-weight="800" font-size="112" fill="#9aa1b2" letter-spacing="-3">you <tspan font-style="italic" fill="#c7cdda">how.</tspan></text>
<text x="110" y="760" font-family="-apple-system,'SF Pro Display','Helvetica Neue',Arial,sans-serif" font-weight="800" font-size="112" fill="#ffffff" letter-spacing="-3">NoArk tells you</text>
<text x="110" y="884" font-family="-apple-system,'SF Pro Display','Helvetica Neue',Arial,sans-serif" font-weight="800" font-size="112" fill="#ffd98a" letter-spacing="-3" font-style="italic">what to do.</text>

<!-- compass emblem -->
<g transform="translate(621,1560)">
  <circle cx="0" cy="0" r="430" fill="none" stroke="url(#rim)" stroke-width="2.5" opacity="0.4"/>
  <circle cx="0" cy="0" r="356" fill="url(#dial)" stroke="url(#rim)" stroke-width="10"/>
  <circle cx="0" cy="0" r="356" fill="none" stroke="#ffe2a6" stroke-width="2" opacity="0.25"/>
  <!-- tick marks -->
  <g stroke="#ffe2a6" stroke-width="4" opacity="0.55">
    <line x1="0" y1="-330" x2="0" y2="-300"/><line x1="0" y1="300" x2="0" y2="330"/>
    <line x1="-330" y1="0" x2="-300" y2="0"/><line x1="300" y1="0" x2="330" y2="0"/>
  </g>
  <g stroke="#ffe2a6" stroke-width="2.5" opacity="0.3">
    <line x1="233" y1="-233" x2="212" y2="-212"/><line x1="-233" y1="-233" x2="-212" y2="-212"/>
    <line x1="233" y1="233" x2="212" y2="212"/><line x1="-233" y1="233" x2="-212" y2="212"/>
  </g>
  <!-- needle pointing to guiding star (up) -->
  <g transform="rotate(18)">
    <path d="M0,-250 L46,40 L0,8 Z" fill="url(#rim)"/>
    <path d="M0,250 L-46,-40 L0,-8 Z" fill="#5a4a2a"/>
    <path d="M0,-250 L-46,40 L0,8 Z" fill="#d9aa55"/>
    <path d="M0,250 L46,-40 L0,-8 Z" fill="#403014"/>
  </g>
  <circle cx="0" cy="0" r="26" fill="#1a160e" stroke="#ffe2a6" stroke-width="6"/>
  <!-- guiding north star -->
  <g transform="translate(0,-356)">
    <path d="M0,-46 L12,-12 46,0 12,12 0,46 -12,12 -46,0 -12,-12 Z" fill="url(#star)"/>
  </g>
  <text x="0" y="270" text-anchor="middle" font-family="-apple-system,'SF Pro Display','Helvetica Neue',Arial,sans-serif" font-weight="700" font-size="42" fill="#ffd98a" letter-spacing="2">GUIDANCE, NOT JUST ANSWERS</text>
</g>

<!-- supporting line -->
<text x="621" y="2150" text-anchor="middle" font-family="-apple-system,'SF Pro Display','Helvetica Neue',Arial,sans-serif" font-weight="500" font-size="46" fill="#aeb6c4">It tells you what's worth doing — for your own good.</text>

<!-- trust line -->
<text x="621" y="2400" text-anchor="middle" font-family="-apple-system,'SF Pro Display','Helvetica Neue',Arial,sans-serif" font-weight="600" font-size="48" fill="#cfd5e0">Trusted by iOS users in 20+ countries</text>

<!-- brand mark -->
<text x="110" y="2620" font-family="-apple-system,'SF Pro Display','Helvetica Neue',Arial,sans-serif" font-weight="600" font-size="34" fill="#7a8294">NoArk — Infinity Memory</text>
</svg>
